<svg preserveAspectRatio="none" width="100%" height="100%" overflow="visible" style="display: block;" viewBox="0 0 48 48" fill="none" xmlns="http://www.w3.org/2000/svg">
<g id="Container">
<path id="Icon" d="M10.6667 37.3333H21.3333V26.6667H10.6667V37.3333V37.3333M26.6667 37.3333H37.3333V26.6667H26.6667V37.3333V37.3333M10.6667 21.3333H21.3333V10.6667H10.6667V21.3333V21.3333M26.6667 21.3333H37.3333V10.6667H26.6667V21.3333V21.3333M5.33333 48C3.86667 48 2.61111 47.4778 1.56667 46.4333C0.522222 45.3889 0 44.1333 0 42.6667V5.33333C0 3.86667 0.522222 2.61111 1.56667 1.56667C2.61111 0.522222 3.86667 0 5.33333 0H42.6667C44.1333 0 45.3889 0.522222 46.4333 1.56667C47.4778 2.61111 48 3.86667 48 5.33333V42.6667C48 44.1333 47.4778 45.3889 46.4333 46.4333C45.3889 47.4778 44.1333 48 42.6667 48H5.33333V48M5.33333 42.6667H42.6667V42.6667V42.6667V5.33333V5.33333V5.33333H5.33333V5.33333V5.33333V42.6667V42.6667V42.6667V42.6667M5.33333 5.33333V5.33333V5.33333V5.33333V42.6667V42.6667V42.6667V42.6667V42.6667V42.6667V5.33333V5.33333V5.33333V5.33333" fill="var(--fill-0, #8E9192)"/>
</g>
</svg>
